<?xml version="1.0" standalone="no"?>
<!DOCTYPE svg PUBLIC "-//W3C//DTD SVG 20010904//EN"
 "http://www.w3.org/TR/2001/REC-SVG-20010904/DTD/svg10.dtd">
<svg version="1.0" xmlns="http://www.w3.org/2000/svg"
 width="246.000000pt" height="135.000000pt" viewBox="0 0 246.000000 135.000000"
 preserveAspectRatio="xMidYMid meet">
<metadata>
Created by potrace 1.16, written by Peter Selinger 2001-2019
</metadata>
<g transform="translate(0.000000,135.000000) scale(0.100000,-0.100000)"
fill="#000000" stroke="none">
<path d="M1839 1126 c-93 -25 -192 -100 -275 -207 -51 -67 -160 -260 -169
-299 -12 -56 -105 -121 -105 -72 1 28 38 103 76 149 37 45 36 52 -6 28 -35
-20 -53 -19 -45 4 3 10 -1 24 -10 31 -13 11 -19 10 -35 -5 -11 -10 -20 -24
-20 -31 0 -7 -6 -25 -14 -41 -8 -15 -20 -41 -27 -56 -19 -41 -86 -110 -99
-102 -16 10 -5 47 42 139 l40 79 -27 -7 c-20 -5 -31 -2 -39 10 -21 28 -78 11
-121 -37 -43 -48 -55 -76 -55 -130 0 -32 4 -41 25 -51 20 -9 32 -8 58 4 31 15
34 15 45 -3 29 -46 97 2 148 107 25 51 29 55 53 49 14 -4 27 -8 29 -10 2 -1
-8 -20 -23 -40 -39 -59 -31 -125 17 -125 9 0 33 14 52 30 32 29 35 29 41 11 3
-10 13 -22 21 -25 12 -5 15 -2 10 10 -3 8 -3 27 0 40 l6 24 43 -39 c55 -51 97
-61 137 -31 l30 22 14 -21 c23 -32 53 -25 95 19 44 46 49 48 49 20 0 -11 9
-29 21 -41 37 -37 97 -12 151 64 11 16 18 30 16 33 -3 2 -19 -16 -36 -40 -39
-54 -86 -77 -110 -53 -26 27 -5 65 63 112 51 34 60 45 60 70 0 27 -3 30 -32
29 -43 -2 -73 -28 -146 -126 -67 -90 -107 -113 -107 -63 0 29 59 152 128 268
l47 77 42 -6 c55 -8 97 2 134 33 l30 26 22 -21 c90 -84 250 -32 250 80 0 60
-17 87 -71 110 -37 17 -58 19 -109 15 -34 -4 -72 -11 -83 -17 -15 -8 -32 -7
-65 5 -54 18 -103 18 -166 1z m168 -20 c5 -4 -6 -17 -22 -29 -17 -12 -57 -47
-91 -79 -48 -46 -63 -55 -73 -45 -11 10 -12 8 -7 -10 5 -17 -5 -42 -37 -95
-65 -107 -106 -186 -119 -230 -13 -45 -59 -88 -92 -88 -35 0 -91 42 -94 70 -2
22 7 30 64 60 80 42 98 64 69 86 -12 9 -35 14 -57 12 -42 -4 -43 -6 28 104 88
134 191 225 284 248 39 10 136 7 147 -4z m252 0 c51 -27 67 -103 31 -149 -62
-78 -231 -49 -214 37 3 17 0 44 -6 60 -13 34 -13 34 37 51 50 18 117 19 152 1z
m-211 -85 c4 -47 -12 -72 -60 -97 -34 -17 -108 -19 -108 -2 0 18 138 150 153
145 6 -2 13 -23 15 -46z m-944 -312 c-1 -47 -46 -144 -74 -159 -75 -40 -62 99
16 177 35 34 59 27 58 -18z"/>
<path d="M735 1033 c-33 -9 -64 -33 -86 -69 -16 -26 -24 -67 -35 -171 -22
-213 -59 -273 -169 -273 -91 0 -145 45 -145 123 0 23 8 41 26 58 36 34 125 34
174 -1 l35 -24 -24 27 c-53 58 -164 63 -213 8 -33 -37 -36 -81 -9 -131 28 -54
73 -75 157 -75 147 0 191 71 224 361 14 120 34 152 98 161 72 10 145 -52 111
-93 -12 -15 -12 -17 0 -13 29 10 36 35 17 64 -29 44 -97 64 -161 48z"/>
<path d="M850 753 c-8 -3 -23 -13 -33 -22 -17 -14 -19 -14 -28 2 -15 26 -24
20 -26 -18 -3 -72 -167 -342 -266 -438 -88 -87 -194 -129 -282 -113 -65 12
-98 77 -71 140 26 61 128 86 194 46 36 -22 45 -9 9 15 -34 22 -108 29 -150 16
-116 -39 -116 -193 0 -232 82 -27 212 11 307 89 58 48 147 158 189 233 31 56
49 71 62 49 23 -37 122 30 156 105 40 87 8 153 -61 128z m38 -42 c13 -87 -100
-235 -123 -162 -11 37 14 105 61 160 30 36 57 37 62 2z"/>
</g>
</svg>
